<svg width="20" height="20" viewBox="0 0 20 20" fill="none" xmlns="http://www.w3.org/2000/svg">
<g clip-path="url(#clip0)">
<path d="M9.85745 9.79852C11.181 9.79852 12.3271 9.33135 13.2635 8.40964C14.2 7.48807 14.6747 6.36048 14.6747 5.0578C14.6747 3.75557 14.2 2.62783 13.2634 1.70596C12.3268 0.784547 11.1808 0.317383 9.85745 0.317383C8.53375 0.317383 7.38797 0.784547 6.45154 1.70611C5.51511 2.62768 5.04025 3.75542 5.04025 5.0578C5.04025 6.36048 5.51511 7.48822 6.45169 8.40979C7.38828 9.3312 8.53421 9.79852 9.85745 9.79852Z" fill="white"/>
<path d="M18.2863 15.4522C18.2593 15.0686 18.2047 14.6503 18.1242 14.2085C18.0431 13.7634 17.9385 13.3426 17.8134 12.9581C17.6842 12.5606 17.5084 12.168 17.2911 11.7919C17.0656 11.4014 16.8007 11.0615 16.5034 10.7817C16.1926 10.489 15.8121 10.2537 15.372 10.0821C14.9335 9.91135 14.4475 9.82486 13.9276 9.82486C13.7234 9.82486 13.526 9.9073 13.1447 10.1516C12.91 10.3022 12.6355 10.4764 12.3291 10.6691C12.0671 10.8334 11.7122 10.9873 11.2738 11.1266C10.8461 11.2628 10.4118 11.3319 9.98322 11.3319C9.5546 11.3319 9.12048 11.2628 8.69232 11.1266C8.25439 10.9874 7.89948 10.8335 7.63779 10.6692C7.33429 10.4784 7.05963 10.3042 6.82144 10.1515C6.44058 9.90715 6.24298 9.82471 6.03882 9.82471C5.5188 9.82471 5.03296 9.91135 4.59457 10.0822C4.15482 10.2536 3.77411 10.4889 3.46298 10.7819C3.16589 11.0618 2.90085 11.4016 2.67563 11.7919C2.4585 12.168 2.28271 12.5604 2.15332 12.9582C2.02835 13.3428 1.92383 13.7634 1.84265 14.2085C1.76224 14.6497 1.70761 15.0682 1.6806 15.4526C1.65405 15.8292 1.64062 16.2201 1.64062 16.6149C1.64062 17.6423 1.9725 18.4741 2.62695 19.0875C3.27332 19.6928 4.12857 19.9999 5.16861 19.9999H14.7987C15.8388 19.9999 16.6937 19.693 17.3402 19.0875C17.9948 18.4745 18.3267 17.6426 18.3267 16.6147C18.3266 16.2181 18.313 15.827 18.2863 15.4522Z" fill="white"/>
</g>
<defs>
<clipPath id="clip0">
<rect width="20" height="19.6825" fill="white" transform="translate(0 0.317383)"/>
</clipPath>
</defs>
</svg>
