<svg width="20" height="20" viewBox="0 0 20 20" fill="none" xmlns="http://www.w3.org/2000/svg">
<path d="M19.2892 15.8278L15.9974 12.5883C16.5959 11.4103 16.9949 10.0359 16.9949 8.6616C16.9949 4.04774 13.2044 0.317383 8.51613 0.317383C3.82785 0.317383 0.037323 4.04774 0.037323 8.6616C0.037323 13.2755 3.82785 17.0058 8.51613 17.0058C9.91264 17.0058 11.3092 16.6132 12.5062 16.0241L15.7979 19.2637C16.7954 20.2453 18.2917 20.2453 19.2892 19.2637C20.187 18.282 20.187 16.8095 19.2892 15.8278ZM8.51613 15.0425C4.92511 15.0425 2.03234 12.1956 2.03234 8.6616C2.03234 5.12758 4.92511 2.28073 8.51613 2.28073C12.1072 2.28073 14.9999 5.12758 14.9999 8.6616C14.9999 12.1956 12.1072 15.0425 8.51613 15.0425Z" fill="white"/>
</svg>
