<svg width="20" height="20" viewBox="0 0 20 20" fill="none" xmlns="http://www.w3.org/2000/svg">
<path d="M6 16.0634C4.9 16.0634 4 16.9491 4 18.0317C4 19.1142 4.9 19.9999 6 19.9999C7.1 19.9999 8 19.1142 8 18.0317C8 16.9491 7.1 16.0634 6 16.0634ZM0 0.317383V2.28564H2L5.6 9.765L4.2 12.1269C4.1 12.4221 4 12.8158 4 13.111C4 14.1936 4.9 15.0793 6 15.0793H18V13.111H6.4C6.3 13.111 6.2 13.0126 6.2 12.9142V12.8158L7.1 11.1427H14.5C15.3 11.1427 15.9 10.7491 16.2 10.1586L19.8 3.76183C20 3.565 20 3.46659 20 3.26976C20 2.67929 19.6 2.28564 19 2.28564H4.2L3.3 0.317383H0ZM16 16.0634C14.9 16.0634 14 16.9491 14 18.0317C14 19.1142 14.9 19.9999 16 19.9999C17.1 19.9999 18 19.1142 18 18.0317C18 16.9491 17.1 16.0634 16 16.0634Z" fill="white"/>
</svg>
